<svg version="1.2" baseProfile="tiny-ps" xmlns="http://www.w3.org/2000/svg" viewBox="0 0 16 16" width="16" height="16">
	<title>list-svg</title>
	<style>
		tspan { white-space:pre }
		.s0 { fill: #ffffff } 
	</style>
	<path id="Layer" fill-rule="evenodd" class="s0" d="m2.5 12c0-0.07 0.01-0.13 0.04-0.19c0.03-0.06 0.06-0.12 0.11-0.16c0.05-0.05 0.1-0.08 0.16-0.11c0.06-0.03 0.13-0.04 0.19-0.04h10c0.13 0 0.26 0.05 0.35 0.15c0.09 0.09 0.15 0.22 0.15 0.35c0 0.13-0.05 0.26-0.15 0.35c-0.09 0.09-0.22 0.15-0.35 0.15h-10c-0.07 0-0.13-0.01-0.19-0.04c-0.06-0.03-0.12-0.06-0.16-0.11c-0.05-0.05-0.08-0.1-0.11-0.16c-0.03-0.06-0.04-0.13-0.04-0.19zm0-4c0-0.07 0.01-0.13 0.04-0.19c0.03-0.06 0.06-0.12 0.11-0.16c0.05-0.05 0.1-0.08 0.16-0.11c0.06-0.03 0.13-0.04 0.19-0.04h10c0.13 0 0.26 0.05 0.35 0.15c0.09 0.09 0.15 0.22 0.15 0.35c0 0.13-0.05 0.26-0.15 0.35c-0.09 0.09-0.22 0.15-0.35 0.15h-10c-0.07 0-0.13-0.01-0.19-0.04c-0.06-0.03-0.12-0.06-0.16-0.11c-0.05-0.05-0.08-0.1-0.11-0.16c-0.03-0.06-0.04-0.13-0.04-0.19zm0-4c0-0.07 0.01-0.13 0.04-0.19c0.03-0.06 0.06-0.12 0.11-0.16c0.05-0.05 0.1-0.08 0.16-0.11c0.06-0.03 0.13-0.04 0.19-0.04h10c0.13 0 0.26 0.05 0.35 0.15c0.09 0.09 0.15 0.22 0.15 0.35c0 0.13-0.05 0.26-0.15 0.35c-0.09 0.09-0.22 0.15-0.35 0.15h-10c-0.07 0-0.13-0.01-0.19-0.04c-0.06-0.03-0.12-0.06-0.16-0.11c-0.05-0.05-0.08-0.1-0.11-0.16c-0.03-0.06-0.04-0.13-0.04-0.19z" />
</svg>